<svg xmlns="http://www.w3.org/2000/svg" xmlns:xlink="http://www.w3.org/1999/xlink" width="21" height="20" viewBox="0 0 21 20"><defs><path id="xdnaa" d="M1076.89 33.03l1.034 8.969h10.45l1.176-8.969z"/><path id="xdnab" d="M1075.98 47a2 2 0 1 1 4 0 2 2 0 0 1-4 0z"/><path id="xdnac" d="M1084.98 47a2 2 0 1 1 4 0 2 2 0 0 1-4 0z"/><path id="xdnad" d="M1088.372 42h-10.45l-1.034-8.969h12.66zm-11.715-10.969l-.235-2.031H1071v2h3.64l1.5 13h13.988l1.699-12.969z"/></defs><g><g transform="translate(-1071 -29)"><g><g><use fill="#e84d37" xlink:href="#xdnaa"/></g><g><use fill="#343434" xlink:href="#xdnab"/></g><g><use fill="#343434" xlink:href="#xdnac"/></g><g><use fill="#343434" xlink:href="#xdnad"/></g></g></g></g></svg>