<svg xmlns="http://www.w3.org/2000/svg" xmlns:xlink="http://www.w3.org/1999/xlink" width="20" height="20" viewBox="0 0 20 20"><defs><path id="xonua" d="M639.391 290H624.61a2.616 2.616 0 0 0-2.609 2.609v14.782a2.616 2.616 0 0 0 2.609 2.609h14.782a2.616 2.616 0 0 0 2.609-2.609V292.61a2.616 2.616 0 0 0-2.609-2.609zm0 1.74c.472 0 .87.397.87.869v14.782c0 .472-.398.87-.87.87H624.61a.881.881 0 0 1-.87-.87V292.61c0-.472.398-.87.87-.87h14.782z"/></defs><g><g transform="translate(-622 -290)"><g opacity=".8"><g opacity=".8"><use fill="#fff" xlink:href="#xonua"/></g></g></g></g></svg>