<svg id="SVGDoc" width="20" height="20" xmlns="http://www.w3.org/2000/svg" version="1.1" xmlns:xlink="http://www.w3.org/1999/xlink" xmlns:avocode="https://avocode.com/" viewBox="0 0 20 20"><defs><path d="M415.3913,290h-14.7826c-1.43479,0 -2.6087,1.17391 -2.6087,2.6087v14.7826c0,1.43479 1.17391,2.6087 2.6087,2.6087h14.7826c1.43479,0 2.6087,-1.17391 2.6087,-2.6087v-14.7826c0,-1.43479 -1.17391,-2.6087 -2.6087,-2.6087zM415.3913,291.73913c0.47131,0 0.86957,0.39826 0.86957,0.86957v14.7826c0,0.47131 -0.39826,0.86957 -0.86957,0.86957h-14.7826c-0.47131,0 -0.86957,-0.39826 -0.86957,-0.86957v-14.7826c0,-0.47131 0.39826,-0.86957 0.86957,-0.86957h14.7826z" id="Path-0"/></defs><desc>Generated with Avocode.</desc><g transform="matrix(1,0,0,1,-398,-290)"><g opacity="0.8"><title>Shape</title><use xlink:href="#Path-0" fill="#ffffff" fill-opacity="1"/></g></g></svg>