<svg id="SVGDoc" width="24" height="20" xmlns="http://www.w3.org/2000/svg" version="1.1" xmlns:xlink="http://www.w3.org/1999/xlink" xmlns:avocode="https://avocode.com/" viewBox="0 0 24 20"><defs><path d="M199.47467,296.50696l-2.51467,2.46l6.91822,6.76782l12.384,-12.11478l-2.51378,-2.46l-9.87022,9.65391z" id="Path-0"/><path d="M211.66667,307.3913c0,0.47131 -0.40711,0.86957 -0.88889,0.86957h-15.11111c-0.48178,0 -0.88889,-0.39826 -0.88889,-0.86957v-14.7826c0,-0.47131 0.40711,-0.86957 0.88889,-0.86957h15.02933l1.40889,-1.37826c-0.40177,-0.23344 -0.85983,-0.358 -1.32711,-0.36087h-15.11111c-1.46667,0 -2.66667,1.17391 -2.66667,2.6087v14.7826c0,1.43479 1.2,2.6087 2.66667,2.6087h15.11111c1.46666,0 2.66666,-1.17391 2.66666,-2.6087v-8.54695l-1.77777,1.73913z" id="Path-1"/></defs><desc>Generated with Avocode.</desc><g transform="matrix(1,0,0,1,-193,-290)"><g opacity="0.8"><title>checkbox-on</title><g><title>checkbox-on</title><g><title>Shape</title><use xlink:href="#Path-0" fill="#ffffff" fill-opacity="1"/></g><g><title>Shape</title><use xlink:href="#Path-1" fill="#ffffff" fill-opacity="1"/></g></g></g></g></svg>