<svg xmlns="http://www.w3.org/2000/svg" xmlns:xlink="http://www.w3.org/1999/xlink" width="24" height="20" viewBox="0 0 24 20"><defs><path id="l3eqa" d="M199.475 296.507l-2.515 2.46 6.918 6.768 12.384-12.115-2.514-2.46-9.87 9.654z"/><path id="l3eqb" d="M211.667 307.391c0 .472-.407.87-.89.87h-15.11c-.482 0-.89-.398-.89-.87V292.61c0-.472.408-.87.89-.87h15.029l1.409-1.378a2.675 2.675 0 0 0-1.327-.361h-15.111c-1.467 0-2.667 1.174-2.667 2.609v14.782c0 1.435 1.2 2.609 2.667 2.609h15.11c1.467 0 2.667-1.174 2.667-2.609v-8.547l-1.777 1.74z"/></defs><g><g opacity=".8" transform="translate(-193 -290)"><g opacity=".8"><g opacity=".8"><use fill="#fff" xlink:href="#l3eqa"/></g><g opacity=".8"><use fill="#fff" xlink:href="#l3eqb"/></g></g></g></g></svg>