<svg xmlns="http://www.w3.org/2000/svg" xmlns:xlink="http://www.w3.org/1999/xlink" width="49" height="49" viewBox="0 0 49 49"><defs><path id="81usa" d="M636.5 1418c-12.407 0-22.5-10.094-22.5-22.5 0-12.407 10.093-22.5 22.5-22.5 12.406 0 22.5 10.093 22.5 22.5 0 12.406-10.094 22.5-22.5 22.5zm0-47c-13.531 0-24.5 10.969-24.5 24.5s10.969 24.5 24.5 24.5 24.5-10.969 24.5-24.5-10.969-24.5-24.5-24.5z"/><path id="81usb" d="M646.554 1393.178a9.44 9.44 0 0 0-.297-.888c2.198.23 3.354.84 3.575 1.23.024.04.05.086-.04.25-.263.48-1.974.07-3.238-.592zm-3.42 8.395c-.398 1.01-.61 1.552-.683 1.877l-.066.302.114.287c.283.71.711 1.908.772 2.351.001.01.096.858-.65 1.716-.72.826-2.364 1.812-6.113 1.812-3.75 0-5.394-.986-6.114-1.812-.746-.857-.65-1.707-.65-1.716.062-.44.49-1.64.773-2.352l.114-.286-.066-.302c-.072-.326-.285-.869-.684-1.88-.587-1.49-1.393-3.529-1.646-4.842-.422-2.198.38-4.575 2.146-6.358 1.514-1.528 4.936-1.868 6.127-1.87 1.167 0 4.542.338 6.143 1.885 2.082 2.014 2.466 4.597 2.13 6.344-.252 1.313-1.059 3.354-1.647 4.844zm-19.96-8.053c.222-.39 1.386-1.006 3.608-1.233-.116.29-.217.582-.302.878-1.265.673-2.998 1.091-3.267.605-.089-.163-.063-.21-.04-.25zm7.677-5.84c-.7.33-1.359.744-1.892 1.283-.276.28-.533.57-.77.872-.55-.943-1.469-3.054-1.044-6.125.916 1.304 2.23 2.92 3.706 3.97zm13.98 2.14a9.905 9.905 0 0 0-.799-.872c-.544-.526-1.199-.934-1.89-1.258 1.482-1.05 2.8-2.673 3.72-3.982.427 3.06-.478 5.157-1.032 6.112zm2.416-8.96a1 1 0 0 0-1.825-.182c-1.27 2.268-4.038 5.927-6.047 6.094-.03.002-.054.02-.083.024a16.242 16.242 0 0 0-2.789-.296c-.103 0-1.31.01-2.8.292-.026-.004-.046-.019-.072-.02-2.004-.168-4.773-3.828-6.048-6.096a1 1 0 1 0-1.824.183c-1.448 4.494-.427 7.771.433 9.482-1.744.22-3.954.777-4.757 2.188-.388.682-.38 1.464.024 2.201.514.94 1.4 1.245 2.334 1.245.816 0 1.668-.233 2.35-.482-.005.54.025 1.08.128 1.612.288 1.496 1.131 3.636 1.748 5.197.188.48.396 1.004.51 1.324-.236.614-.673 1.812-.767 2.484-.112.801.114 2.147 1.121 3.306 1.443 1.66 4.006 2.5 7.62 2.5 3.611 0 6.175-.84 7.618-2.5 1.007-1.158 1.233-2.505 1.121-3.306-.094-.673-.53-1.87-.767-2.484.114-.319.32-.843.51-1.32.616-1.563 1.461-3.704 1.75-5.2.095-.532.14-1.07.134-1.61.68.247 1.528.48 2.342.48.936 0 1.82-.307 2.334-1.246.404-.737.412-1.519.024-2.2-.8-1.41-3.01-1.968-4.755-2.188.86-1.71 1.88-4.987.433-9.482z"/></defs><g><g transform="translate(-612 -1371)"><g><g><use fill="#323232" xlink:href="#81usa"/></g><g><use fill="#323232" xlink:href="#81usb"/></g></g></g></g></svg>