<svg xmlns="http://www.w3.org/2000/svg" xmlns:xlink="http://www.w3.org/1999/xlink" width="49" height="49" viewBox="0 0 49 49"><defs><path id="wk36a" d="M71.5 1506c-12.407 0-22.5-10.094-22.5-22.5 0-12.407 10.093-22.5 22.5-22.5 12.406 0 22.5 10.093 22.5 22.5 0 12.406-10.094 22.5-22.5 22.5zm0-47c-13.531 0-24.5 10.969-24.5 24.5s10.969 24.5 24.5 24.5 24.5-10.969 24.5-24.5-10.969-24.5-24.5-24.5z"/><path id="wk36b" d="M72.5 1497.52v-4.415c1.428-.653 4.792-2.3 7.12-4.284-.95 5.411-5.02 7.813-7.12 8.7zm-9.117-8.696c2.328 1.985 5.69 3.633 7.117 4.286v4.408c-2.092-.905-6.162-3.335-7.117-8.694zm3.468-13.554a45.379 45.379 0 0 1 3.649-5.229v8.008c-1.113-.5-2.694-1.399-3.65-2.779zm5.649 11.07c1.35-.569 4.499-2.034 6.719-4.092.305 1.128.515 2.273.584 3.417-1.083 1.883-4.855 4.03-7.303 5.227zm0-8.294v-8.008a45.238 45.238 0 0 1 3.65 5.23c-.952 1.373-2.535 2.275-3.65 2.778zm6.018 2.061c-1.59 1.824-4.362 3.283-6.018 4.044v-3.939c1.092-.413 3.183-1.372 4.695-3.062.489.95.935 1.94 1.323 2.957zm-8.018.105v3.94c-1.654-.76-4.424-2.216-6.016-4.043.386-1.009.827-1.996 1.323-2.956 1.513 1.688 3.602 2.646 4.693 3.06zm0 6.128v4.552c-2.448-1.196-6.22-3.34-7.302-5.228.078-1.155.274-2.3.585-3.415 2.219 2.058 5.368 3.521 6.717 4.091zm1.72-19.682c-.014-.015-.032-.023-.047-.037a.941.941 0 0 0-.118-.09.944.944 0 0 0-.13-.077c-.018-.009-.032-.022-.051-.03-.027-.01-.056-.01-.083-.02a.898.898 0 0 0-.297-.044c-.045 0-.09.002-.134.008a.956.956 0 0 0-.158.038c-.025.008-.052.008-.076.018-.018.007-.031.021-.05.03a.896.896 0 0 0-.132.078.95.95 0 0 0-.118.091c-.015.013-.033.021-.046.036-.39.404-9.14 9.608-9.587 19.105-.008.067-.017.133-.011.202-.013.363-.017.727-.003 1.091.369 10.256 9.978 12.82 10.075 12.845a.995.995 0 0 0 .494 0c.097-.024 9.706-2.589 10.074-12.845.013-.363.009-.727-.003-1.089.006-.073-.004-.142-.012-.213-.45-9.493-9.197-18.693-9.586-19.097z"/></defs><g><g transform="translate(-47 -1459)"><g><g><use fill="#323232" xlink:href="#wk36a"/></g><g><use fill="#323232" xlink:href="#wk36b"/></g></g></g></g></svg>