<svg xmlns="http://www.w3.org/2000/svg" xmlns:xlink="http://www.w3.org/1999/xlink" width="38" height="38" viewBox="0 0 38 38"><defs><path id="qoioa" d="M144.925 1579.237c10.284 0 18.62 8.336 18.62 18.62 0 10.283-8.336 18.619-18.62 18.619-10.283 0-18.62-8.336-18.62-18.62 0-10.283 8.337-18.619 18.62-18.619zm-15.752 18.682c0 8.667 7.025 15.692 15.692 15.692 8.666 0 15.691-7.025 15.691-15.692 0-8.666-7.025-15.691-15.691-15.691-8.667 0-15.692 7.025-15.692 15.691z"/><path id="qoiob" d="M149.062 1591.455h-3.021v3.444h3.021v3.445h-3.021v8.61h-3.021v-8.61H140v-3.445h3.021v-3.444c0-1.902 1.353-3.445 3.021-3.445h3.021v3.445zM145 1582c-8.836 0-16 7.163-16 16s7.164 16 16 16c8.837 0 16-7.164 16-16s-7.163-16-16-16z"/></defs><g><g transform="translate(-126 -1579)"><g opacity=".5"><use fill="#fff" xlink:href="#qoioa"/></g><g><g opacity=".8"><g opacity=".8"><use fill="#fff" xlink:href="#qoiob"/></g></g></g></g></g></svg>