<svg xmlns="http://www.w3.org/2000/svg" xmlns:xlink="http://www.w3.org/1999/xlink" width="80" height="140" viewBox="0 0 80 140"><defs><path id="wycua" d="M306.001 2022.1c-19.457 0-35.286 15.829-35.286 35.286 0 3.646.568 7.263 1.668 10.713-3.619 3.016-5.903 7.552-5.903 12.515 0 8.984 7.309 16.294 16.292 16.294 3.157 0 6.141-.925 8.672-2.529 3.681 3.846 8.86 6.187 14.557 6.187 5.697 0 10.875-2.341 14.556-6.187a16.181 16.181 0 0 0 8.673 2.529c8.984 0 16.293-7.31 16.293-16.294 0-4.962-2.284-9.499-5.903-12.516a35.317 35.317 0 0 0 1.667-10.713c-.001-19.456-15.83-35.285-35.286-35.285zm0 7c15.622 0 28.285 12.664 28.285 28.286 0 5.112-1.362 9.902-3.734 14.041 4.503.643 7.971 4.506 7.971 9.188a9.292 9.292 0 0 1-9.293 9.293c-4.682 0-8.545-3.467-9.188-7.971-.353.201-.709.396-1.07.583-1.012 6.26-6.426 11.045-12.971 11.045-6.546 0-11.96-4.786-12.972-11.046-.36-.187-.717-.38-1.069-.582-.644 4.504-4.505 7.971-9.188 7.971-5.132 0-9.292-4.161-9.292-9.293 0-4.682 3.466-8.544 7.97-9.188a28.146 28.146 0 0 1-3.735-14.041c0-15.622 12.664-28.286 28.286-28.286z"/><path id="wycub" d="M318.083 2105.92l3.898-3.898.32.319-2.05 5.747zm-1.414 9.201l-3.898-3.893 3.898-3.893 2.838 2.834-1.175 3.291zm-3.899 6.736l3.898-3.898.046.045-2.05 5.747zm-.329 8.126l-1.085 1.085-3.898-3.898 3.898-3.898 2.564 2.564zm-3.364 9.431l-1.619-1.619 3.415-3.415zm-5.384 2.145l2.351-2.351 2.29 2.29-2.33 6.537zm-2.606-7.307l3.543 3.55-1.68 1.683zm-1.568-4.395l-1.413-3.96 2.625-2.625 3.898 3.898-3.898 3.898zm-4.1-11.897l3.908 3.898-1.958 1.954-2.055-5.747zm-2.899-7.727l2.9-2.899 3.897 3.898-3.898 3.898-1.79-1.791zm-2.793-7.832l.38-.38 3.898 3.898-2.229 2.229zm14.903 14.139l-3.898 3.893-3.898-3.893 3.898-3.893zm1.41-9.206l3.892 3.898-3.893 3.898-3.893-3.898zm3.892 25.144l-3.893 3.893-3.893-3.893 3.893-3.893zm-7.786-10.62l3.893-3.898 3.893 3.898-3.893 3.898zm13.11-5.318l-3.899 3.893-3.898-3.893 3.898-3.893zm5.936-17.309c-.37.3-.76.574-1.149.851l.525.525-3.898 3.898-1.673-1.673c-.687.273-1.386.517-2.1.728l2.358 2.359-3.898 3.898-3.898-3.898 1.556-1.556c-.989.122-1.989.206-3.01.206-.989 0-1.959-.079-2.918-.194l1.543 1.544-3.898 3.898-3.898-3.898 2.34-2.34a23.606 23.606 0 0 1-2.105-.724l-1.649 1.649-3.898-3.898.49-.489c-.405-.288-.81-.575-1.197-.887a20.06 20.06 0 0 1-8.039 1.681c-.204 0-.4-.024-.603-.03a3.467 3.467 0 0 0 .16 1.622l20.375 57.125c.024.068.06.128.087.193.03.07.058.139.092.206.07.14.15.271.237.397.03.042.054.087.084.129.125.166.262.32.412.459.032.03.07.055.103.084.125.107.254.205.392.294.058.037.118.07.18.104.137.077.278.145.425.202.038.015.07.038.108.052.02.007.04.009.06.016.126.043.257.074.39.103.055.012.11.029.164.038.185.03.373.048.562.048.19 0 .377-.018.562-.048.057-.009.113-.027.17-.04.13-.027.26-.058.384-.101.021-.007.041-.009.061-.016.04-.014.072-.037.111-.053.145-.058.285-.124.421-.2.063-.033.124-.069.183-.106.136-.088.265-.186.388-.291.034-.03.072-.056.105-.086.15-.14.287-.294.412-.46.03-.04.054-.084.082-.125.088-.128.17-.261.24-.401.033-.066.062-.134.09-.201.028-.066.064-.128.09-.197l20.372-57.124c.182-.52.237-1.076.16-1.622-.202.006-.399.03-.603.03-2.835 0-5.56-.598-8.04-1.681z"/></defs><g><g transform="translate(-266 -2022)"><use fill="#e84d37" xlink:href="#wycua"/></g><g transform="translate(-266 -2022)"><use fill="#e84d37" xlink:href="#wycub"/></g></g></svg>