<svg xmlns="http://www.w3.org/2000/svg" xmlns:xlink="http://www.w3.org/1999/xlink" width="61" height="61" viewBox="0 0 61 61"><defs><path id="hksla" d="M320 946.5c0-16.845 13.655-30.5 30.5-30.5s30.5 13.655 30.5 30.5-13.655 30.5-30.5 30.5-30.5-13.655-30.5-30.5z"/><path id="hkslb" d="M367.007 934.534c-1.78.214-3.554.278-5.33.266.254 8.32-1.044 17.041.185 25.27.078.523-1.87.942-1.932.518-1.245-8.325.104-17.156-.191-25.564-.004-.098.064-.184.157-.265a138.526 138.526 0 0 1-3.271-.145c-1.02-.057.73-.936 1.22-.908 3.167.18 6.32.332 9.479-.048 1.352-.163.54.774-.317.876zm-12.613 25.24c.103.136.127.32.015.56l-.056.118c-.33.706-1.884.947-1.91-.065-.153-5.994-.282-11.978-.211-17.967-.513 1.554-1.04 3.105-1.561 4.663-1.416 4.249-2.258 8.67-3.894 12.843-.005.01-.016.018-.021.029.015.797-1.821 1.173-1.944.317l-.064-.445a.644.644 0 0 1 .034-.301c-.285-8.333-.266-16.64-.303-24.98-.004-.904 1.956-1.177 1.96-.134.03 6.636.027 13.252.166 19.878.527-1.959 1.022-3.928 1.666-5.858 1.445-4.333 3.052-8.6 4.056-13.065.017-.076.062-.14.1-.204.005-.08.005-.158.009-.238.044-.923 2.012-1.176 1.963-.128-.394 8.337-.216 16.642-.005 24.978zm-14.405-25.506c.166-.488 2.027-.704 1.903-.343-1.376 4.034-2.51 8.105-3.578 12.191 1.026 4.411 2.282 8.785 3.146 13.247.109.563-1.834 1.026-1.932.518-.63-3.25-1.468-6.453-2.273-9.657-.83 3.265-1.654 6.535-2.556 9.8-.133.482-2.013.738-1.904.344 1.268-4.59 2.383-9.19 3.579-13.77-.947-4.079-1.695-8.19-1.747-12.433-.007-.628 1.927-.949 1.932-.518.037 2.96.415 5.852.958 8.715.754-2.71 1.557-5.41 2.472-8.094z"/></defs><g><g transform="translate(-320 -916)"><g><g><use fill="#fff" xlink:href="#hksla"/></g><g><g><use fill="#231f20" xlink:href="#hkslb"/></g></g></g></g></g></svg>