<svg xmlns="http://www.w3.org/2000/svg" xmlns:xlink="http://www.w3.org/1999/xlink" width="49" height="49" viewBox="0 0 49 49"><defs><path id="561ca" d="M71.5 1418c-12.407 0-22.5-10.094-22.5-22.5 0-12.407 10.093-22.5 22.5-22.5 12.406 0 22.5 10.093 22.5 22.5 0 12.406-10.094 22.5-22.5 22.5zm0-47c-13.531 0-24.5 10.969-24.5 24.5s10.969 24.5 24.5 24.5 24.5-10.969 24.5-24.5-10.969-24.5-24.5-24.5z"/><path id="561cb" d="M70 1411.122a1.5 1.5 0 0 0 3 0v-7.117h-3zm-5-10.075v-9.257c.275.337.705.631 1.542.631 1.292 0 2.125-.713 2.125-1.625v-.875a.854.854 0 0 1 1.708 0c0 .009-.005.017-.005.025 0 .007.005.01.005.017v3.292s-.031 1.833 2.125 1.833c2.109 0 2.125-1.75 2.125-1.75v-2.25h.001l-.001-.005a1.344 1.344 0 0 1 2.688 0c0 .031.021.088.021.088s.034.609.667.894v8.982zm6.5-22.417c-4.355 0-7.94 3.278-8.436 7.5H63v16.917h17v-16.917h-.063c-.497-4.222-4.082-7.5-8.437-7.5z"/></defs><g><g transform="translate(-47 -1371)"><g><g><use fill="#323232" xlink:href="#561ca"/></g><g><use fill="#323232" xlink:href="#561cb"/></g></g></g></g></svg>