<svg xmlns="http://www.w3.org/2000/svg" xmlns:xlink="http://www.w3.org/1999/xlink" width="38" height="38" viewBox="0 0 38 38"><defs><path id="v56la" d="M95.925 1579.237c10.284 0 18.62 8.336 18.62 18.62 0 10.283-8.336 18.619-18.62 18.619-10.283 0-18.62-8.336-18.62-18.62 0-10.283 8.337-18.619 18.62-18.619zm-15.752 18.682c0 8.667 7.026 15.692 15.692 15.692s15.691-7.025 15.691-15.692c0-8.666-7.025-15.691-15.691-15.691s-15.692 7.025-15.692 15.691z"/><path id="v56lb" d="M100.916 1598a4.938 4.938 0 1 1-9.877 0c0-.394.051-.773.138-1.14h-.897v6.838h11.396v-6.838h-.897c.086.367.137.746.137 1.14z"/><path id="v56lc" d="M98.638 1592.3h3.039v3.039h-3.039zm-2.659 8.357a2.662 2.662 0 0 0 2.659-2.659 2.662 2.662 0 0 0-2.659-2.659 2.662 2.662 0 0 0-2.659 2.659 2.662 2.662 0 0 0 2.659 2.659z"/><path id="v56ld" d="M103.965 1603.707a2.286 2.286 0 0 1-2.28 2.28H90.28a2.286 2.286 0 0 1-2.28-2.28v-11.404a2.287 2.287 0 0 1 2.28-2.28h11.404a2.287 2.287 0 0 1 2.28 2.28v11.404zM96 1582c-8.836 0-16 7.164-16 16 0 8.837 7.164 16 16 16 8.837 0 16-7.163 16-16 0-8.836-7.163-16-16-16z"/></defs><g><g transform="translate(-77 -1579)"><g opacity=".5"><use fill="#fff" xlink:href="#v56la"/></g><g><g opacity=".8"><g opacity=".8"><use fill="#fff" xlink:href="#v56lb"/></g><g opacity=".8"><use fill="#fff" xlink:href="#v56lc"/></g><g opacity=".8"><use fill="#fff" xlink:href="#v56ld"/></g></g></g></g></g></svg>