<svg xmlns="http://www.w3.org/2000/svg" xmlns:xlink="http://www.w3.org/1999/xlink" width="109" height="38" viewBox="0 0 109 38"><defs><path id="pgfta" d="M1012.21 1575.23v-10l-12.65-1.33-12.65 1.33v10l12.58-7.49zm-12.7-6.14l-12.51 7.54 12.5 7.45 2.13-1.26-2.1-1.24v-1.31l3.2 1.9 1-.67-4.24-2.52v-1.34l5.37 3.2 1-.54.14-.09-6.49-3.92v-1.31l7.62 4.57 1.6-1 3.48-2zm12.7 19.99l-.01.006v.014zm-.01.006v-11.106l-3.9 2.31v5.66l-8.75 5.24-8.68-5.21v-1.35l8.67 5.16v-1.39l-8.68-5.21v-1.31l8.63 5.1v-1.32l-12.59-7.5v10.94l12.65 7.52zm1.9-25.566v26.67l-14.55 8.66-14.55-8.66v-26.67l14.55-1.54h.16zm42.07-.09h1.83v12.15h-1.83zm-15.83 3.83h1.66v1a3.81 3.81 0 0 1 2.77-1.28 2.86 2.86 0 0 1 2.6 1.33 4.12 4.12 0 0 1 2.91-1.33 3.06 3.06 0 0 1 3.16 3.4v5.21h-1.9v-5.15a1.59 1.59 0 0 0-1.42-1.75h-.23a2.8 2.8 0 0 0-2.07 1.12v5.78h-1.9v-5.15a1.59 1.59 0 0 0-1.42-1.75h-.23a3 3 0 0 0-2.21 1.29v5.63h-1.72zm-5.4-2.97v3h3v1.6h-3v3.81c0 1.1.5 1.46 1.58 1.46a4.49 4.49 0 0 0 1.69-.33v1.6a6.8 6.8 0 0 1-2.21.35 2.55 2.55 0 0 1-2.86-2.74v-4.17h-1.56v-1.63h1.5v-2.52zm-11.21-.85v4.76a3.81 3.81 0 0 1 2.7-1.14 3.25 3.25 0 0 1 3.44 3.4v5.15H1028v-4.91a1.81 1.81 0 0 0-1.61-2h-.3a2.93 2.93 0 0 0-2.32 1.39v5.52h-1.9v-12.17zm67.4 18.39h1.9l-3.91 9.46c-.9 2.17-2.09 2.86-3.35 2.86a4.76 4.76 0 0 1-1.1-.14v-1.57c.276.083.562.123.85.12.9 0 1.58-.64 2.07-1.9l.17-.42-4-8.4h2l2.86 6.29zm-21.31 8.33v-8.31h1.65v1a3.81 3.81 0 0 1 2.78-1.27 2.86 2.86 0 0 1 2.64 1.4 4.12 4.12 0 0 1 2.91-1.33 3.06 3.06 0 0 1 3.2 3.33v5.2h-1.9v-5.15a1.59 1.59 0 0 0-1.42-1.75h-.26a2.8 2.8 0 0 0-2.07 1.12v5.78h-1.9v-5.15a1.59 1.59 0 0 0-1.45-1.74h-.2a3 3 0 0 0-2.21 1.29v5.63h-1.73zm-5.73-7a2.28 2.28 0 0 0-2.44 2.1v.06h4.65a2 2 0 0 0-2.17-2.16zm-.085-1.54c3.314 0 4.465 2.68 3.925 5.09h-6.228c.21 1.5 1.672 2.11 3.194 2.11a6.124 6.124 0 0 0 2.643-.59v1.6a7.156 7.156 0 0 1-3.003.57c-2.533 0-4.756-1.42-4.756-4.42a4.177 4.177 0 0 1 1.086-3.029 4.187 4.187 0 0 1 2.919-1.361h.22zm-10.535 1.58a2.76 2.76 0 1 0 0 5.52 2.86 2.86 0 0 0 2.68-1.74v-2a2.91 2.91 0 0 0-2.66-1.73zm4.53-5.22v12.2h-1.65v-1.32a3.88 3.88 0 0 1-3.19 1.54 4.4 4.4 0 0 1 0-8.78 3.81 3.81 0 0 1 3 1.3v-4.94zm-16.74 9.75a1.35 1.35 0 0 0 1.47 1.25h.11a3.39 3.39 0 0 0 2.41-1v-1.42a9.72 9.72 0 0 0-1.81-.21c-1.06 0-2.16.33-2.16 1.38zm6.44 1.13a2 2 0 0 0 .55-.1v1.33a3.25 3.25 0 0 1-1.18.21 1.67 1.67 0 0 1-1.67-1 4.84 4.84 0 0 1-3.14 1.08c-1.51 0-2.91-.83-2.91-2.55 0-2.13 2-2.79 3.71-2.79.73.012 1.457.095 2.17.25v-.3c0-1-.76-1.77-2.19-1.77a7.42 7.42 0 0 0-3 .64v-1.7a10.21 10.21 0 0 1 3.19-.55c2.36 0 3.81 1.12 3.81 3.65v3a.54.54 0 0 0 .49.59h.17zm-12.17-7.24a5 5 0 0 1 2.57.64v1.72a4.08 4.08 0 0 0-2.3-.7 2.75 2.75 0 1 0 0 5.49 5 5 0 0 0 2.43-.64v1.71a6.27 6.27 0 0 1-2.76.57 4.21 4.21 0 0 1-4.47-3.92v-.41a4.32 4.32 0 0 1 4.18-4.46zm-12.36 6.11a1.35 1.35 0 0 0 1.46 1.25h.11a3.39 3.39 0 0 0 2.41-1v-1.42a9.72 9.72 0 0 0-1.81-.21c-1 0-2.16.33-2.16 1.38zm6.44 1.13a2 2 0 0 0 .55-.1v1.33a3.25 3.25 0 0 1-1.18.21 1.67 1.67 0 0 1-1.67-1 4.84 4.84 0 0 1-3.14 1.08c-1.51 0-2.91-.83-2.91-2.55 0-2.13 2-2.79 3.71-2.79.73.012 1.457.095 2.17.25v-.3c0-1-.76-1.77-2.19-1.77a7.42 7.42 0 0 0-3 .64v-1.7a10.21 10.21 0 0 1 3.19-.55c2.36 0 3.81 1.12 3.81 3.65v3a.54.54 0 0 0 .49.59h.17z"/></defs><g><g transform="translate(-985 -1561)"><g><g><use fill="#fff" xlink:href="#pgfta"/></g></g></g></g></svg>