<svg xmlns="http://www.w3.org/2000/svg" xmlns:xlink="http://www.w3.org/1999/xlink" width="154" height="64" viewBox="0 0 154 64"><defs><path id="cw1fa" d="M38.08 56.363c-.334-2.158.89-3.18 1.689-3.57.798-.39 1.877-.88 6.587-.711 0 0 0 3.328-3.223 5.156 0 0-4.537 2.469-5.053-.875zm9.626-38.97s1.25 1.282.094 2.813c-.656.869-2.396 3.589-10.656 4.938-.001 0 2.593-4.562 5.718-6.812 0 0 3.28-2.5 4.844-.938zM86.292 51.76c-.833-.25-2.153.373-2.153.373s-3.027 2.513-17.84-.378c-10.908-2.13-16.583-1.917-16.583-1.917s1.833-12.5 1.333-16c0 0 0-.917-1.083-.917s-1.75.417-1.75 1 .167 4.417-.25 7.083c0 0-1.417 4.25-6.167 3.917-4.75-.334-5.75-3.75-6.167-6.083-.417-2.333-.666-8.833.584-11.5 0 0 7.167.25 11.667-3.583s4.25-7.167 2.083-8.583c-2.167-1.416-7.083-1.167-10.917 2.333-3.834 3.5-5.083 7-5.083 7s-5.625-1.208-4.333-7.083c1.349-6.14 9.76-5.417 9.76-5.417 1.75.333 1.823.5 2.406-.083.583-.583 1-2.083-1.75-2.167-2.75-.084-11 1.27-12.583 6.75-1.685 5.828 1.435 9.997 5.622 10.643 0 0-2.288 10.107.545 15.107 2.833 5 6.94 4.917 8.595 4.917 1.655 0 4.572-.916 5.405-2.25 0 0-.393 3.58-.724 4.88 0 0-6.935-.095-9.11 1.036-3.687 1.917-2.916 6.48-1.5 8.104 1.205 1.38 4.813 2.125 7.418.896 2.705-1.277 4.865-3.74 5.549-7.697 0 0 6.368-.47 12.534 1.364 6.166 1.833 14.756 3.556 17.34 3.556 2.584 0 8.046-.738 8.327-2.89.186-1.437-.342-2.161-1.175-2.411z"/><path id="cw1fb" d="M119.297 30.644c-2.54-1.229-4.81-3.29-5.713-6-1.278-3.827 2.927-6.647 6.272-6.474 3.487.181 5.135 3.625 4.965 6.71-.06 1.094-.747 3.556-2.095 2.276-.95-.906-1.368-2.375-1.565-3.632-.191-1.21-3.099-.495-2.897.776.578 3.657 4.525 7.69 7.895 3.863 3.012-3.418 1.655-9.462-2.573-11.233-4.521-1.893-10.13.077-12.524 4.327-2.73 4.85 2.747 9.598 6.626 11.321 6.223 3.338 6.453 14.054-1.817 14.126-3.428.03-6.616-2.438-7.69-5.609-.571-1.688-.278-7.553 2.014-8.003 1.806-.354 1.31-2.04-.453-1.693-3.711.727-5.078 5.515-4.719 8.858.576 5.341 5.576 8.34 10.626 8.295 4.68-.04 8.65-2.929 9.621-7.549.938-4.482-1.911-8.768-5.973-10.359zM98.929 60.57c-.704.146-1.033-.117-1.244-1.237-.149-1.08-.132-2.176.05-3.25.24-2.022 1.386-3.737 2.792-5.154-.007.61-.005 1.22-.014 1.831-.038 2.683-.382 5.377-1.584 7.81zM77.572 40.995c-.5 2-.953 2.78-2.583 3.438-1.704.688-2.438-1.418-2.438-1.418-1.146-3.208.396-6.042 1.667-7.919 1.271-1.877 2.573-2.096 3.312-1.955a1.36 1.36 0 0 1 1.001 1.562c-.074.58-.459 4.292-.959 6.292zm-11.9-18.719c.688-2.656 1.329-3.719 1.954-3.719s.938.72.469 3c-.469 2.281-1.987 8.626-4.094 12.75 0 0 .984-9.374 1.671-12.03zm-6.464-3.719c.625 0 .938.72.469 3-.469 2.281-1.987 8.626-4.094 12.75 0 0 .983-9.374 1.671-12.03.688-2.657 1.329-3.72 1.954-3.72zm41.368 21.685c-.007.038-.019.075-.021.115-.035.931-.418 1.734-.861 2.537a5.56 5.56 0 0 1-1.18 1.463c-.533.47-.877-.564-1.078-.985-1.391-2.915-.726-6.812-.187-9.862.257-1.454-2.706-1.077-2.936.222-.334 1.888-.869 5.118-.547 7.906-.587.101-1.167.366-1.341.737-.511 1.088-2.009 4.704-3.833 3.258-1.319-1.046-1.461-3.743-1.6-5.268-.191-2.11.154-4.266.815-6.264-.049.15 1.143-2.821 1.671-1.705.326.69.032 2.641-.608 3.122-1.571 1.182.875 1.67 1.824.956 1.802-1.356 3.05-5.708-.074-6.232-3.464-.58-5.438 2.923-6.163 5.697-.335 1.28-.563 3.074-.504 4.886-.481.832-2.097 3.533-3.047 4.026-1.125.584-1.104-.229-1.062-.75.042-.52.542-5.146.813-8.27.175-2.015-.062-2.772-.5-3.647s-3.994-2.825-7.146.833c-2.183 2.534-2.912 4.927-3.08 7.054-.213.425-.443.873-.71 1.362-1.5 2.75-3.384 3.91-4.062 2-.594-1.672-.906-3.703-.75-6.188.005-.088 3.5-5 5.062-11.75 1.562-6.75 1.25-10.062.438-10.625-.812-.563-4.25-1.938-6.312 6.25-1.523 6.047-2.137 12.5-1.565 17.88a41.599 41.599 0 0 1-1.229 2.433c-1.5 2.75-3.384 3.91-4.062 2-.594-1.672-.906-3.703-.75-6.188.005-.088 3.5-5 5.062-11.75 1.562-6.75 1.25-10.062.438-10.625-.812-.563-4.25-1.938-6.312 6.25-2.062 8.188-2.465 17.126-.5 23.125 0 0 1.081 3.375 3.103 3.125 1.671-.207 3.656-1.846 4.829-4.906.144.615.301 1.215.487 1.781 0 0 1.081 3.375 3.103 3.125 1.376-.17 2.964-1.32 4.14-3.423.711 1.84 2.239 3.34 4.213 2.985C77.221 46.453 77.772 45 77.772 45s-.051 2.383 1.657 2.383c1.525 0 2.729-.889 3.938-3.159.409-.77.642-1.218.773-1.48.356 2.143 1.241 4.054 3.018 4.83 2.976 1.297 5.62-1.173 7.167-3.609.473 1.2 1.24 2.156 2.461 2.616 1.338.505 2.659.013 3.772-.928-.005 1.173-.016 2.346-.026 3.52-.584 0-1.239.142-1.547.414-3.203 2.825-4.598 6.241-4.195 10.521.233 2.48 2.576 3.597 4.725 2.662 3.101-1.35 3.57-6.02 3.83-8.836.625-6.829.139-13.939.139-20.79 0-1.294-2.906-.703-2.906.328z"/><path id="cw1fc" d="M131.392 22.438c.305-.897.715-1.771 1.094-2.638.473-1.083 1.73-4.772 2.645-3.007.73 1.405-.426 3.72-.938 5.072-.83 2.187-2.254 3.953-4.047 5.302.31-1.582.714-3.158 1.246-4.729zm6.486 24.096c-2.855-1.552-1.223-7.563-.79-9.875.278-1.492 1.554-3.794-.495-4.296-2.385-.584-5.223 1.687-7.277 3.858.012-2.506.17-5 .553-7.478 3.088-1.576 5.4-3.821 7.182-7.395 1.295-2.604 1.941-7.971-2.46-6.422-3.987 1.403-5.378 6.017-6.62 9.688a29.259 29.259 0 0 0-1.094 4.378c-.398.16-.803.312-1.219.44-1.658.512-1.44 1.407.238.89.275-.085.543-.173.81-.263-.794 5.612-.257 11.49.247 17.02.05.54 2.97-.001 2.898-.777-.227-2.468-.414-4.922-.496-7.364.283-.104.52-.236.633-.387.89-1.175 1.982-2.203 3.08-3.177.3-.261.605-.513.92-.755l.46-.34c.673-.53.798-.542.38-.04-.06.917-.459 1.93-.625 2.833-.549 2.992-2.127 8.889 1.346 10.775.745.403 3.43-.715 2.33-1.313z"/><path id="cw1fd" d="M171.175 54.64c-2.54.075-5.625 1.434-6.117 3.958-.213 1.096-.4 2.688 1.29 3.086.017.002.038 0 .054.003 5.07.822 6.057-3.48 4.773-7.048zm-17.853-16.7c-.183 2.483-.318 4.97-.258 7.446v.038c.377-.127.738-.203.947-.17 4.384.688 4.248-6.63 3.945-9.4-.123-1.138-.453-1.967-.777-2.129-.684.401-1.276.953-1.803 1.538-.7.778-1.392 1.589-1.908 2.505a.767.767 0 0 1-.146.172zM150.193 55.8c.036-.623.06-1.245.084-1.868-1.537 2.315-2.32 5.034-2.346 7.892.056.781.316.717.316.717a22.06 22.06 0 0 0 .801-1.598c.686-1.594 1.043-3.405 1.145-5.143zm29.944 1.775c4.711 12.073-14.56 18.62-22.347 11.543-.455-.415 2.155-1.515 2.73-.992 5.364 4.878 14.561 3.25 16.948-4.054 1.064-3.255-.059-7.035-3.043-8.66.875 5.111-3.693 8.732-9.828 7.737a1.258 1.258 0 0 1-.299-.084c-1.254-.34-2.185-1.289-2.283-2.979-.125-2.17 2.418-4.11 4.131-4.936a18.274 18.274 0 0 1 4.613-1.482c-.55-1.102-1.324-2.07-2.262-2.696-4.57-3.049-10.715-2.84-15.205.1.037 1.52.018 3.037-.16 4.528-.4 3.355-1.277 7.76-4.172 9.984-2.048 1.575-4.002-.115-3.982-2.386.043-4.559 1.12-8.198 5.391-12.06.144-6.174-.012-12.344.441-18.54.1-1.356 3.052-1.745 2.941-.203-.049.67-.105 1.342-.16 2.014.586-.517 1.21-.963 1.865-1.26 1.842-.839 4.311-1.292 4.93 1.233.657 2.682.9 6.92-.777 9.314-1.502 2.145-3.969 3.124-6.502 2.997.04.906.088 1.817.13 2.73 6.285-3.07 15.564-3.84 19.474 1.948.445.654.825 1.349 1.133 2.076 2.705.134 5.166 1.242 6.293 4.128zM143.64 44.998c1.98.788 2.138-4.292 2.085-5.436-.076-1.687-.105-4.624-1.52-5.835-1.782-1.524-2.563 1.49-2.864 3.506a.542.542 0 0 1 .246.525c-.166 2.037-.388 6.27 2.053 7.24zm4.998-5.475c-.004 3.68-1.328 7.325-5.509 7.393-3.748.063-4.512-4.047-4.508-7.197-.215-.113-.354-.295-.35-.569.058-3.367 1.755-7.882 6.064-7.49 3.928.357 4.31 4.575 4.303 7.863z"/></defs><g><g transform="translate(-27 -9)"><g><g><use fill="#fff" xlink:href="#cw1fa"/></g><g><use fill="#fff" xlink:href="#cw1fb"/></g><g><use fill="#fff" xlink:href="#cw1fc"/></g><g><use fill="#fff" xlink:href="#cw1fd"/></g></g></g></g></svg>