<svg xmlns="http://www.w3.org/2000/svg" xmlns:xlink="http://www.w3.org/1999/xlink" width="33" height="33" viewBox="0 0 33 33"><defs><path id="okcaa" d="M375.625 711.75c8.905 0 16.125 7.219 16.125 16.125 0 8.905-7.22 16.125-16.125 16.125-8.906 0-16.125-7.22-16.125-16.125 0-8.906 7.22-16.125 16.125-16.125z"/><path id="okcab" d="M373.5 730a4.505 4.505 0 0 1-4.5-4.5c0-2.481 2.019-4.5 4.5-4.5s4.5 2.019 4.5 4.5-2.019 4.5-4.5 4.5zm10.458 4.527l-5.208-5.207a6.455 6.455 0 0 0 1.25-3.82 6.5 6.5 0 1 0-6.5 6.5 6.465 6.465 0 0 0 3.839-1.263l5.205 5.204z"/></defs><g><g transform="translate(-359 -711)"><use fill="#f8f7f4" xlink:href="#okcaa"/></g><g transform="translate(-359 -711)"><use fill="#323232" xlink:href="#okcab"/></g></g></svg>