<svg xmlns="http://www.w3.org/2000/svg" xmlns:xlink="http://www.w3.org/1999/xlink" width="22" height="22" viewBox="0 0 22 22"><defs><path id="9h53a" d="M565 215c-6.075 0-11 4.925-11 11s4.925 11 11 11 11-4.925 11-11-4.925-11-11-11zm0 3.52c4.125 0 7.48 3.355 7.48 7.48s-3.355 7.48-7.48 7.48-7.48-3.355-7.48-7.48 3.355-7.48 7.48-7.48z"/><path id="9h53b" d="M561.04 226a3.96 3.96 0 1 1 7.92 0 3.96 3.96 0 0 1-7.92 0z"/></defs><g><g opacity=".8" transform="translate(-554 -215)"><use fill="#fff" xlink:href="#9h53a"/></g><g opacity=".8" transform="translate(-554 -215)"><use fill="#fff" xlink:href="#9h53b"/></g></g></svg>