<svg xmlns="http://www.w3.org/2000/svg" xmlns:xlink="http://www.w3.org/1999/xlink" width="49" height="49" viewBox="0 0 49 49"><defs><path id="7ysia" d="M636.5 1506c-12.407 0-22.5-10.094-22.5-22.5 0-12.407 10.093-22.5 22.5-22.5 12.406 0 22.5 10.093 22.5 22.5 0 12.406-10.094 22.5-22.5 22.5zm0-47c-13.531 0-24.5 10.969-24.5 24.5s10.969 24.5 24.5 24.5 24.5-10.969 24.5-24.5-10.969-24.5-24.5-24.5z"/><path id="7ysib" d="M641.129 1491.684a5.126 5.126 0 0 1-10.25 0c0-1.647.792-3.098 2-4.035v-15.528a3.031 3.031 0 1 1 6.062 0v15.372a5.114 5.114 0 0 1 2.188 4.191zm-.187-19.563a5.037 5.037 0 0 0-5.031-5.031 5.037 5.037 0 0 0-5.031 5.031v14.64a7.042 7.042 0 0 0-2 4.923 7.133 7.133 0 0 0 7.125 7.125 7.133 7.133 0 0 0 7.125-7.125 7.127 7.127 0 0 0-2.188-5.126v-14.437z"/><path id="7ysic" d="M643 1485h6v-2h-6zm0-4h6v-2h-6zm0-4h6v-2h-6zm0-4h6v-2h-6zm-6-.812a1 1 0 0 0-2 0v16.371a2.99 2.99 0 0 0-2 2.816 3 3 0 0 0 6 0 2.99 2.99 0 0 0-2-2.816z"/></defs><g><g transform="translate(-612 -1459)"><g><g><use fill="#323232" xlink:href="#7ysia"/></g><g><use fill="#323232" xlink:href="#7ysib"/></g><g><use fill="#323232" xlink:href="#7ysic"/></g></g></g></g></svg>