<svg xmlns="http://www.w3.org/2000/svg" xmlns:xlink="http://www.w3.org/1999/xlink" width="38" height="38" viewBox="0 0 38 38"><defs><path id="rf9ia" d="M45.925 2349.237c10.284 0 18.62 8.336 18.62 18.62 0 10.283-8.336 18.619-18.62 18.619-10.283 0-18.62-8.336-18.62-18.62 0-10.283 8.337-18.619 18.62-18.619zm-15.752 18.682c0 8.667 7.026 15.692 15.692 15.692s15.691-7.025 15.691-15.692c0-8.666-7.025-15.691-15.691-15.691s-15.692 7.025-15.692 15.691z"/><path id="rf9ib" d="M53.944 2364.806c-.251 6.512-3.463 10.825-10.992 10.695h-.486c-.447 0-4.543-.443-5.344-1.822 2.479.19 4.247-.405 5.12-1.135-1.048-.289-2.923-.46-3.251-2.846.384.104.618.22 1.299.113-1.307-.823-2.758-1.518-2.679-3.64.311.316 1.164.517 1.46.456-.768-.233-2.149-3.242-.974-4.778 1.984 1.79 4.075 3.48 7.804 3.64.227-2.212 1.24-3.696 3.168-4.321 1.84-.479 3.255.26 3.901 1.137.737-.224 1.453-.466 2.193-.684-.004.832-.569 1.462-.935 1.707.747.165 1.423-.474 1.423-.474-.184.962-1.094 1.724-1.707 1.952zM46 2352c-8.836 0-16 7.164-16 16 0 8.837 7.164 16 16 16 8.837 0 16-7.163 16-16 0-8.836-7.163-16-16-16z"/></defs><g><g opacity=".5" transform="translate(-27 -2349)"><use fill="#fff" xlink:href="#rf9ia"/></g><g opacity=".8" transform="translate(-27 -2349)"><use fill="#fff" xlink:href="#rf9ib"/></g></g></svg>