<svg xmlns="http://www.w3.org/2000/svg" xmlns:xlink="http://www.w3.org/1999/xlink" width="38" height="38" viewBox="0 0 38 38"><defs><path id="a0tla" d="M193.925 2349.237c10.284 0 18.62 8.336 18.62 18.62 0 10.283-8.336 18.619-18.62 18.619-10.283 0-18.62-8.336-18.62-18.62 0-10.283 8.337-18.619 18.62-18.619zm-15.752 18.682c0 8.667 7.025 15.692 15.692 15.692 8.666 0 15.691-7.025 15.691-15.692 0-8.666-7.025-15.691-15.691-15.691-8.667 0-15.692 7.025-15.692 15.691z"/><path id="a0tlb" d="M196.116 2369.086c-.282-.08-.672-.125-1.166-.132-.517-.006-1.033-.009-1.55-.009h-.79v3.493h.264c1.014 0 1.74-.003 2.18-.009a3.2 3.2 0 0 0 1.212-.245c.377-.157.633-.364.774-.625.141-.26.214-.562.214-.9 0-.446-.088-.788-.261-1.03-.17-.24-.464-.423-.877-.543zm-1.481-2.589c.402-.019.719-.082.951-.188.326-.145.54-.33.641-.559.101-.229.15-.496.15-.797 0-.232-.058-.465-.174-.697-.116-.232-.322-.405-.617-.517-.264-.1-.592-.155-.984-.165-.55-.01-1.101-.015-1.652-.014h-.339v2.965h.565c.571 0 1.057-.009 1.459-.028z"/><path id="a0tlc" d="M200.592 2372.531a3.73 3.73 0 0 1-1.123 1.327 5.25 5.25 0 0 1-1.821.886c-.662.176-1.5.264-2.517.264h-6.116v-14.021h5.438c1.13 0 1.956.038 2.478.113.544.082 1.07.25 1.56.5.533.27.928.632 1.188 1.087.26.455.392.975.392 1.558 0 .678-.18 1.278-.536 1.795-.357.518-.862.92-1.516 1.208v.075c.917.182 1.641.559 2.178 1.13.536.571.806 1.325.806 2.261 0 .678-.138 1.283-.41 1.817zM194 2352c-8.836 0-16 7.164-16 16 0 8.837 7.164 16 16 16 8.837 0 16-7.163 16-16 0-8.836-7.163-16-16-16z"/></defs><g><g opacity=".5" transform="translate(-175 -2349)"><use fill="#fff" xlink:href="#a0tla"/></g><g opacity=".8" transform="translate(-175 -2349)"><use fill="#fff" xlink:href="#a0tlb"/></g><g opacity=".8" transform="translate(-175 -2349)"><use fill="#fff" xlink:href="#a0tlc"/></g></g></svg>